<svg width="40" height="40" viewBox="0 0 40 40" fill="none" xmlns="http://www.w3.org/2000/svg">
<rect width="40" height="40" fill="#2D2E2E"/>
<path d="M28.7003 21H21.1203L18.5703 28H27.0303L26.3003 26H23.5203L24.2503 24H27.7003L29.1503 28H31.2503L28.7003 21Z" fill="#FFFDF9"/>
<path d="M11.3 21L8.75 28H16.41L18.96 21H11.3Z" fill="#FFFDF9"/>
<path d="M15.5 19.5C17.7091 19.5 19.5 17.7091 19.5 15.5C19.5 13.2909 17.7091 11.5 15.5 11.5C13.2909 11.5 11.5 13.2909 11.5 15.5C11.5 17.7091 13.2909 19.5 15.5 19.5Z" fill="#FFFDF9"/>
<path d="M25 19.5C27.2091 19.5 29 17.7091 29 15.5C29 13.2909 27.2091 11.5 25 11.5C22.7909 11.5 21 13.2909 21 15.5C21 17.7091 22.7909 19.5 25 19.5Z" fill="#FFFDF9"/>
</svg>
